<?xml version="1.0" encoding="UTF-8"?>
<!DOCTYPE svg PUBLIC "-//W3C//DTD SVG 1.0//EN" "http://www.w3.org/TR/2001/REC-SVG-20010904/DTD/svg10.dtd">
<!-- Creator: CorelDRAW X8 -->
<svg xmlns="http://www.w3.org/2000/svg" xml:space="preserve" width="118.533mm" height="82.9732mm" version="1.0" style="shape-rendering:geometricPrecision; text-rendering:geometricPrecision; image-rendering:optimizeQuality; fill-rule:evenodd; clip-rule:evenodd"
viewBox="0 0 11853 8297"
 xmlns:xlink="http://www.w3.org/1999/xlink">
 <defs>
  <style type="text/css">
   <![CDATA[
    .fil0 {fill:#FEFEFE}
    .fil6 {fill:#1D6B75}
    .fil24 {fill:#2F112D}
    .fil14 {fill:#530030}
    .fil7 {fill:#61B96A}
    .fil9 {fill:#73C89E}
    .fil17 {fill:#7C0032}
    .fil15 {fill:#7C0032}
    .fil2 {fill:#97D1E3}
    .fil5 {fill:#A4D404}
    .fil19 {fill:#AD429B}
    .fil8 {fill:#B373A8}
    .fil12 {fill:#C24A9D}
    .fil11 {fill:#C24A9D}
    .fil22 {fill:#C9C958}
    .fil25 {fill:#CA2B41}
    .fil27 {fill:#D65B32}
    .fil18 {fill:#DE3F43}
    .fil21 {fill:#E7D075}
    .fil26 {fill:#ED5174}
    .fil20 {fill:#EE1176}
    .fil10 {fill:#F2606B}
    .fil28 {fill:#F29156}
    .fil16 {fill:#F4AF72}
    .fil13 {fill:#F7933E}
    .fil23 {fill:#F7C199}
    .fil34 {fill:#FBA026}
    .fil4 {fill:#FDCD9B}
    .fil3 {fill:#FDE5A9}
    .fil1 {fill:#FFF000}
    .fil31 {fill:white}
    .fil30 {fill:#FEFEFE;fill-rule:nonzero}
    .fil32 {fill:#1D6B75;fill-rule:nonzero}
    .fil29 {fill:#2F112D;fill-rule:nonzero}
    .fil35 {fill:#7C0032;fill-rule:nonzero}
    .fil33 {fill:#EE1176;fill-rule:nonzero}
   ]]>
  </style>
 </defs>
 <g id="Layer_x0020_1">
  <metadata id="CorelCorpID_0Corel-Layer"/>
  <rect class="fil0" width="11853" height="8297"/>
  <g id="_107827856944">
   <path class="fil1" d="M4721 6624c0,0 106,257 126,409 21,151 21,240 21,240 0,0 162,10 329,31 168,21 225,-52 225,-52l21 63 105 0c0,0 10,-141 20,-178 11,-37 84,225 121,277 36,52 125,37 125,37l-16 -115c0,0 16,94 173,135 157,42 836,-83 836,-83 0,0 -282,-42 -314,-47 -31,-5 -99,-235 -99,-235 0,0 240,167 319,193 78,26 298,-219 298,-219 0,0 -277,-397 -340,-486 -63,-89 -1950,30 -1950,30z"/>
   <path class="fil2" d="M8316 6453c0,0 -68,307 -113,383 -45,77 -134,171 -134,171l-130 -63c0,0 31,99 58,139 27,41 128,124 117,184 -12,60 53,27 -140,148 -193,121 288,117 -76,-89 -363,-207 -426,-346 -426,-346 0,0 41,308 73,362 32,54 34,136 34,136 0,0 -430,-157 -565,-305 -135,-148 -315,-482 -315,-482l619 -396 998 158z"/>
   <path class="fil2" d="M5037 6428c0,0 -467,597 -549,779 -82,181 -275,350 -275,350 0,0 -76,-46 -152,-82 -76,-35 -222,-263 -222,-263l333 -251c0,0 -123,18 -269,82 -146,64 -169,-53 -169,-53 0,0 -182,-578 -164,-680 18,-102 454,-226 444,-255 -9,-29 488,-88 723,-26 236,62 300,399 300,399z"/>
   <path class="fil0" d="M4704 6574c0,0 -131,284 -164,350 -32,65 -225,186 -225,186l46 39c0,0 219,-186 294,-304 75,-117 104,-150 104,-150 0,0 320,83 404,83 83,0 279,126 394,199 115,73 277,5 277,5 0,0 224,63 471,-22 246,-86 428,-165 448,-158 21,7 360,216 432,291 72,75 109,123 109,123l41 -44c0,0 -717,-541 -812,-580 -95,-40 -448,-19 -448,-19 0,0 -1154,-88 -1371,1z"/>
   <path class="fil3" d="M6567 6606c0,0 228,150 268,164 40,14 274,-20 334,-40 60,-20 80,-66 80,-66l-48 -73c0,0 170,59 302,133 131,75 188,137 188,137l66 -3c0,0 -97,-134 -129,-199 -31,-66 -142,-209 -142,-209l-169 -17c0,0 143,-69 266,-53 123,15 209,-115 209,-115 0,0 -264,-298 -340,-350 -75,-53 -326,-99 -326,-99 0,0 -454,468 -559,790z"/>
   <path class="fil3" d="M4535 6201c0,0 -314,66 -409,109 -96,44 -168,81 -168,81 0,0 22,154 41,180 19,27 140,40 140,40l189 -85c0,0 -30,69 -113,113 -83,43 -113,54 -113,54l47 38c0,0 251,-155 329,-210 79,-54 136,-70 136,-70 0,0 -36,112 -31,164 4,52 191,-45 300,63 109,109 214,49 399,97 185,48 95,-230 95,-230l-488 -355 -354 11z"/>
   <path class="fil4" d="M6523 6592c0,0 87,77 101,82 14,5 -112,102 -168,144 -56,42 -175,16 -175,16l17 44c0,0 -315,57 -416,49 -102,-8 -230,-45 -230,-45l-121 21c0,0 -174,-73 -222,-120 -47,-48 -287,-61 -352,-69 -65,-9 -134,-93 -134,-93l68 -47c0,0 409,103 589,103 180,0 1043,-85 1043,-85z"/>
   <path class="fil5" d="M8937 5146c0,0 92,49 144,69 51,21 179,-31 179,-31 0,0 78,91 84,94 7,3 -100,121 -124,132 -24,11 -123,14 -123,14 0,0 108,12 132,12 24,0 105,-34 105,-34l8 24c0,0 -164,54 -221,65 -57,11 -195,-10 -195,-10 0,0 132,32 272,19 141,-14 240,-34 240,-34 0,0 -198,209 -278,277 -79,69 -214,71 -214,71l13 74c0,0 -447,-91 -514,-163 -68,-72 -172,-304 -142,-322 31,-19 634,-257 634,-257z"/>
   <path class="fil5" d="M4152 5825c0,0 -318,174 -638,231 -320,57 -467,57 -467,57 0,0 -197,-117 -215,-153 -18,-36 158,-105 158,-105 0,0 -60,-33 -81,-33 -21,0 -251,-21 -251,-21l-3 -47c0,0 216,18 326,21 111,3 198,5 198,5 0,0 -273,-62 -392,-110 -120,-48 -371,-287 -371,-287l172 -317c0,0 559,204 656,244 97,40 610,-35 610,-35l433 414 -135 136z"/>
   <path class="fil6" d="M4019 5662c0,0 -141,49 -263,89 -22,26 -48,54 -57,52 -8,-3 -28,-11 -46,-20 -130,36 -342,61 -342,61l70 91 140 53c0,0 508,-135 548,-146 41,-12 92,-145 92,-145l-142 -35z"/>
   <path class="fil0" d="M5018 6618c0,0 -66,-76 -80,-95 -14,-20 -29,-77 -29,-77 0,0 -48,82 -60,122 -12,41 -168,63 -168,63l-67 -180c0,0 89,-64 138,-109 49,-46 560,-354 658,-380 97,-26 334,184 351,226 16,42 135,270 115,332 -21,62 -66,197 -66,197 0,0 -262,-2 -334,0 -71,1 -458,-99 -458,-99z"/>
   <path class="fil0" d="M7338 5828c0,0 10,280 -4,374 -13,93 -31,173 -58,173 -26,0 -156,0 -156,0 0,0 147,63 188,90 40,26 205,44 205,44l-3 41c0,0 -122,-47 -266,-71 -143,-24 -261,-105 -261,-105 0,0 9,92 15,131 7,39 85,126 85,126 0,0 -192,40 -309,38 -118,-2 -194,-81 -194,-81 0,0 -64,83 -88,109 -24,26 -64,19 -127,24 -62,5 -250,30 -328,12 -79,-19 -211,-25 -206,-108 5,-82 12,-353 21,-366 8,-13 141,-400 248,-402 106,-3 1238,-29 1238,-29z"/>
   <path class="fil4" d="M5855 6582c0,0 75,91 100,101 25,10 216,35 216,35 0,0 79,-36 133,-36 54,0 121,-3 121,-3 0,0 -13,41 -20,52 -6,11 -223,10 -310,13 -86,2 -202,-10 -218,-16 -16,-5 -22,-146 -22,-146z"/>
   <path class="fil1" d="M5775 6644c0,0 -70,33 -83,33 -13,0 -212,0 -212,0l-170 14c0,0 -119,-15 -157,-34 -38,-20 -151,-111 -151,-111l-116 31c0,0 176,143 475,156 300,13 420,11 420,11l-6 -100z"/>
   <path class="fil2" d="M3129 4450c0,0 -112,157 -161,248 -49,91 -213,140 -213,140 0,0 35,28 47,44 12,17 241,-72 442,-93 201,-21 337,-58 337,-58 0,0 213,-216 233,-251 19,-35 -46,-254 -46,-254 0,0 -367,-14 -639,224z"/>
   <path class="fil7" d="M3205 3879c-24,-9 -91,39 -236,67 -145,27 -205,27 -205,27 0,0 -2,78 -4,129 -3,50 -3,138 -3,138l62 4c0,0 -29,46 -36,67 -7,21 -53,74 -53,74l27 36c0,0 270,-207 343,-264 73,-57 73,-57 73,-57l175 -87 -143 -134z"/>
   <path class="fil4" d="M6201 5948c0,0 33,180 46,249 13,68 -36,205 -36,205 0,0 10,66 101,69 92,3 239,-134 239,-134l-13 -46c0,0 163,79 186,85 23,7 206,-114 268,-143 62,-30 94,-56 94,-56 0,0 -269,-115 -369,-131 -99,-15 -516,-98 -516,-98z"/>
   <path class="fil1" d="M5475 5897c0,0 -85,99 -115,203 -30,105 23,341 23,341 0,0 -60,37 -116,30 -56,-8 -180,-79 -180,-79l-41 -60c0,0 -90,19 -123,49 -34,30 -120,142 -120,142 0,0 -182,-103 -209,-117 -27,-14 194,-488 194,-488l643 -151 44 130z"/>
   <path class="fil2" d="M8381 4804c0,0 242,2 380,0 138,-2 302,-96 302,-96l25 31c0,0 -110,25 -212,54 -103,30 -166,30 -166,30 0,0 358,34 415,29 56,-5 80,-29 80,-29 0,0 27,120 0,173 -26,52 -289,102 -289,102l85 52c0,0 -190,188 -219,185 -29,-2 -474,56 -530,18 -56,-39 -384,-480 -384,-480l513 -69z"/>
   <path class="fil8" d="M8522 5311c20,0 351,37 462,37 110,0 237,-43 237,-43l10 37c0,0 -392,32 -541,32 -148,0 -188,-6 -188,-6 0,0 266,126 381,144 114,17 356,-7 356,-7l-8 21c0,0 -473,103 -523,116 -49,14 -246,-66 -246,-66 0,0 53,90 66,116 13,26 110,126 110,126 0,0 -389,23 -598,28 -209,5 -630,-142 -685,-171 -55,-28 266,-566 266,-566 0,0 453,195 901,202z"/>
   <path class="fil9" d="M8118 4564c0,0 103,-28 204,-51 101,-23 129,-31 129,-31 0,0 26,62 41,113 14,50 -5,46 -129,88 -124,42 -129,60 -141,47 -11,-12 79,22 149,28 70,7 384,-72 384,-72 0,0 -201,85 -337,134 -135,49 -348,2 -348,2l-56 82c0,0 71,71 301,24 231,-47 593,-91 593,-91l6 16c0,0 -479,83 -493,86 -15,4 -49,209 -59,229 -10,20 -90,67 -90,67 0,0 116,31 260,31 143,0 271,-131 271,-131l63 190c0,0 -790,103 -885,68 -94,-34 -280,-254 -280,-254l417 -575z"/>
   <path class="fil4" d="M4147 5721c0,0 -56,176 -146,223 -91,47 -375,103 -375,103l80 214c0,0 271,-56 392,-103 120,-47 214,-81 214,-81 0,0 -61,64 -117,87 -57,24 -178,61 -178,61l2 28c0,0 155,0 220,-1 66,-2 237,1 237,1 0,0 -6,-1 -6,56 0,27 72,72 159,115 17,-11 34,-21 53,-32 157,-92 277,-311 277,-311 0,0 16,5 43,12 -2,-5 -4,-10 -5,-15 -23,-84 -652,-402 -652,-402l-198 45z"/>
   <path class="fil4" d="M7355 5675c0,0 275,13 523,75 248,63 506,63 506,63 0,0 -144,114 -203,209 -58,94 -160,127 -179,127 -20,0 -177,-59 -177,-59 0,0 105,121 144,144 39,23 -258,-92 -382,-199 -124,-108 -545,-167 -545,-167l313 -193z"/>
   <path class="fil10" d="M5903 6425c0,0 -15,50 -27,95 -13,45 -6,96 -6,96l45 114c0,0 142,7 307,0 166,-7 191,-16 191,-16l-15 34c0,0 -190,-23 -301,8 -111,31 -248,20 -268,-38 -20,-59 6,-301 6,-301l68 8z"/>
   <path class="fil11" d="M5736 6410c0,0 28,58 45,100 17,43 -15,177 -15,177 0,0 -142,25 -182,25 -39,0 -315,22 -434,-18 -119,-39 -180,-128 -180,-128l-84 11c0,0 46,106 376,158 329,52 519,15 535,18 16,3 33,-42 33,-71 0,-29 10,-200 15,-245 4,-45 -109,-27 -109,-27z"/>
   <path class="fil12" d="M8308 732c0,0 30,117 50,214 20,96 41,307 41,317 0,11 -58,311 -79,392 -20,81 64,150 64,150l43 -25c0,0 112,-635 -119,-1048z"/>
   <path class="fil13" d="M2953 865c0,0 -3,111 -3,219 0,108 0,271 0,271 0,0 16,228 52,303 36,75 23,352 23,352 0,0 79,345 97,404 18,59 306,158 306,158l-27 259c0,0 -291,-162 -372,-552 -81,-390 -113,-937 -122,-1109 -10,-171 46,-305 46,-305z"/>
   <path class="fil1" d="M7874 4919c0,0 76,92 173,106 96,13 193,2 193,2 0,0 -90,158 -149,214 -60,55 -237,43 -237,43l55 48 -22 27c0,0 -43,6 -105,-4 -62,-9 -187,-75 -187,-75l-76 192 103 120c0,0 529,99 591,78 63,-21 173,-172 173,-172l80 34c0,0 -50,163 -458,163 -409,1 -807,-31 -778,-97 28,-65 129,-196 160,-275 30,-80 484,-404 484,-404z"/>
   <path class="fil1" d="M3581 4731c0,0 -73,-4 -167,2 -94,7 -355,55 -355,55 0,0 -151,92 -173,129 -22,38 -43,96 -43,96l42 15c0,0 43,-127 54,-143 11,-15 174,-60 183,-61 8,-1 -23,18 -63,54 -41,36 -58,98 -58,98 0,0 130,106 163,130 33,24 123,-17 123,-17 0,0 -64,86 -89,92 -25,6 -184,8 -184,8 0,0 153,156 164,221 11,64 184,75 184,75 0,0 -39,25 -88,32 -49,6 -188,0 -188,0l9 29c0,0 132,0 267,-14 135,-14 279,-85 279,-85 0,0 -42,73 -55,88 -13,15 -104,83 -104,83 0,0 264,72 306,66 43,-7 203,-291 203,-291 0,0 -153,-528 -179,-594 -26,-65 -231,-68 -231,-68z"/>
   <path class="fil0" d="M5517 4675l373 -148c0,0 299,491 332,685 33,193 -53,534 -156,624 -104,91 -228,99 -268,97 -40,-2 -446,-707 -445,-879 2,-171 164,-379 164,-379z"/>
   <path class="fil14" d="M7577 5247c0,0 49,89 67,123 18,34 -27,130 -27,130 0,0 -92,36 -123,41 -32,4 -81,-59 -81,-59l-74 94c0,0 381,110 669,119 287,9 458,-163 458,-163l-14 159c0,0 -613,20 -828,22 -216,3 -378,87 -378,87 0,0 -392,-89 -410,-129 -18,-41 -30,-283 -30,-283l771 -141z"/>
   <path class="fil14" d="M3971 5332c0,0 -22,55 -74,92 -52,37 -124,169 -124,169l-9 66c0,0 -185,-57 -207,-60 -23,-3 -439,-10 -439,-10 0,0 38,107 38,118 0,11 171,30 171,30 0,0 464,-48 525,-64 60,-16 287,61 293,61 7,0 264,-14 264,-14l-9 -202 -429 -186z"/>
   <path class="fil15" d="M3382 3999c0,0 -117,43 -156,68 -38,24 -107,66 -107,66l2 73c0,0 -99,24 -112,24 -13,0 -138,4 -138,4l42 43c0,0 115,-17 156,-29 41,-12 85,-39 85,-39 0,0 -170,244 -224,305 -54,61 -179,74 -179,74l61 165 312 -111c0,0 99,-210 142,-241 44,-30 128,-45 128,-45 0,0 96,24 111,25 15,1 244,-30 281,-46 37,-16 134,-186 134,-186 0,0 -22,-214 -75,-238 -52,-23 -413,-8 -463,88z"/>
   <path class="fil1" d="M3739 3951c0,0 6,177 13,211 7,33 34,128 34,128 0,0 152,52 233,33 82,-20 174,-124 175,-165 1,-41 -6,-152 -13,-152 -7,0 -503,-40 -442,-55z"/>
   <path class="fil15" d="M8439 4000c0,0 98,112 147,168 49,56 87,105 87,105l-10 40c0,0 35,35 66,35 30,0 203,-7 203,-7l-8 25c0,0 -117,7 -246,15 -128,8 -219,-2 -219,-2 0,0 52,39 79,76 27,37 242,122 242,122 0,0 -88,65 -112,96 -24,30 -133,36 -133,36 0,0 -35,-164 -43,-203 -8,-39 -148,-32 -368,-40 -220,-9 -461,-140 -461,-140l84 -438 692 112z"/>
   <path class="fil1" d="M7757 4294c0,0 19,-68 19,-122 0,-54 -10,-135 -10,-135 0,0 -14,-52 -82,-58 -67,-7 -417,-7 -417,-7l16 231c0,0 401,146 474,91z"/>
   <path class="fil5" d="M7851 4842c0,0 81,163 142,185 62,22 209,39 209,39 0,0 -31,23 -61,31 -30,8 -196,-72 -235,-88 -39,-15 113,-22 -82,96 -196,117 -152,218 -267,249 -115,31 -167,-31 -167,-31 0,0 5,81 -32,128 -36,47 -263,55 -263,55 0,0 -382,-8 -427,-19 -46,-10 -179,-369 -169,-425 10,-55 -92,-171 55,-196 146,-24 1025,-175 1025,-175l272 151z"/>
   <path class="fil16" d="M7905 4256c11,-7 62,-46 62,-46 0,0 181,46 220,45 39,-1 84,-16 84,-16l8 9c0,0 -53,15 -68,18 -15,4 -97,13 -97,13 0,0 91,98 105,120 14,22 143,30 143,30l64 -38c0,0 -17,59 -29,76 -11,17 -246,73 -246,73l197 56c0,0 139,-56 261,-117 122,-61 223,-85 223,-85l8 11c0,0 -484,156 -605,289 -121,132 -209,86 -209,86 0,0 261,57 376,59 116,3 290,-113 290,-113l37 39c0,0 -470,153 -590,153 -120,0 -403,-79 -403,-79l-24 -489 193 -94z"/>
   <path class="fil17" d="M6658 1981c0,0 147,-384 253,-526 106,-142 123,-164 137,-166 14,-2 78,-227 78,-227 0,0 -261,40 -301,27 -40,-13 -217,-20 -217,-20 0,0 -151,194 -204,270 -54,77 -54,-137 -54,-183 0,-47 -43,-64 -43,-64 0,0 -247,295 -285,498 -37,203 202,691 248,787 47,96 63,509 63,510 0,0 397,-16 325,-906z"/>
   <path class="fil5" d="M6852 5600c0,0 108,43 153,59 45,16 278,61 278,61l55 108c0,0 -48,-11 -67,-17 -18,-7 -51,-23 -51,-23 0,0 32,58 39,79 7,21 -87,76 -126,115 -38,38 -174,123 -191,135 -18,13 -79,-1 -79,-1 0,0 40,33 14,55 -26,23 7,51 -111,34 -119,-18 -408,-60 -439,-54 -32,5 -106,-195 -113,-234 -7,-38 59,-279 120,-294 61,-16 518,-23 518,-23z"/>
   <path class="fil11" d="M6179 1787c0,0 129,-125 218,-147 89,-21 260,-40 260,-40 0,0 -168,289 -177,334 -9,46 49,276 49,276 0,0 -80,223 -150,216 -71,-7 -200,-639 -200,-639z"/>
   <path class="fil5" d="M4408 5538l-96 199 -205 37c0,0 56,47 261,67 205,20 76,95 127,154 50,59 193,197 193,197l188 -23c0,0 -64,90 -104,107 -39,17 23,16 23,16l144 -139c0,0 36,89 80,107 45,19 281,-192 313,-213 31,-21 -8,-26 -32,-49 -23,-24 97,-285 110,-309 13,-23 -86,-196 -86,-196l-916 45z"/>
   <path class="fil6" d="M8044 3078c0,0 222,106 373,113 150,6 347,-70 347,-70l7 10c0,0 -219,76 -260,90 -42,14 -170,27 -170,27 0,0 111,75 170,119 58,43 431,54 431,54 0,0 -272,300 -272,353 0,54 -185,56 -185,56 0,0 29,47 73,56 43,9 130,112 130,126 0,13 -353,67 -407,41 -54,-25 -618,-464 -738,-587 -120,-123 -331,-234 -331,-234l832 -154z"/>
   <path class="fil18" d="M3622 3318c0,0 -187,64 -320,102 -133,38 -247,83 -260,83 -13,0 -10,50 -15,60 -4,10 78,25 107,26 29,2 177,-35 177,-35 0,0 -69,91 -154,124 -84,34 -425,-73 -425,-73l-3 18c0,0 232,69 345,76 112,7 164,-3 164,-3 0,0 0,66 -14,88 -13,22 -251,27 -251,27 0,0 213,135 297,191 83,56 58,-28 274,-28 216,0 255,26 255,26 0,0 132,-37 167,-52 34,-15 160,-81 160,-81 0,0 -301,-464 -504,-549z"/>
   <path class="fil17" d="M4699 1762c0,0 -219,-342 -332,-411 -113,-68 -355,-235 -443,-298 -88,-62 -132,-147 -132,-147l-63 43c0,0 270,175 371,293 100,118 158,162 158,162l51 30c0,0 -10,99 -10,122 0,24 187,372 187,639 0,268 -131,439 -131,439 0,0 47,229 107,209 59,-21 389,-420 237,-1081z"/>
   <path class="fil15" d="M7809 2096c0,0 235,102 353,117 118,15 129,21 129,21 0,0 -23,75 -17,99 5,23 -118,78 -160,88 -42,11 -394,61 -501,118 -108,58 -341,404 -359,417 -17,14 -237,108 -301,92 -63,-17 -90,-171 -90,-191 0,-20 -52,-551 39,-709 91,-157 302,-184 302,-184l605 132z"/>
   <path class="fil1" d="M7134 2995c0,0 106,-70 197,-207 91,-137 171,-290 171,-290 0,0 160,-32 315,-13 156,18 441,-96 441,-96l7 12c0,0 -208,82 -325,121 -116,39 -155,54 -155,54 0,0 202,60 375,7 174,-53 292,-136 292,-136 0,0 63,62 72,68 9,7 38,22 38,22 0,0 -188,99 -283,141 -95,41 -280,63 -280,63 0,0 169,11 244,5 75,-5 142,-34 142,-34 0,0 -151,208 -207,250 -55,41 -487,128 -691,181 -203,53 -353,-148 -353,-148z"/>
   <path class="fil6" d="M4673 2454c0,0 -3,-359 -9,-616 -5,-256 -189,-618 -189,-618l295 -95c0,0 379,111 446,167 67,56 228,190 228,190 0,0 73,-223 84,-290 11,-67 11,-150 11,-150l81 3c0,0 -105,447 -144,596 -39,148 16,209 16,209 0,0 122,-168 203,-267 81,-99 40,-280 40,-280 0,0 167,24 243,19 75,-5 224,73 224,73 0,0 -10,217 -26,353 -15,135 156,451 156,451 0,0 -187,167 -254,207 -67,40 -536,167 -589,151 -53,-17 -816,-103 -816,-103z"/>
   <path class="fil0" d="M3620 2916c0,0 -322,-107 -387,-187 -66,-81 -120,-155 -120,-155l-24 6c0,0 94,159 181,275 87,115 337,78 337,78l13 -17z"/>
   <path class="fil1" d="M3687 957c0,0 -223,-193 -318,-243 -95,-51 -201,-116 -201,-116 0,0 -85,48 -127,67 -42,19 -89,147 -89,147 0,0 191,8 321,21 130,12 217,8 217,8 0,0 -8,75 -8,146 0,71 -79,307 -79,307 0,0 107,281 170,300 63,18 183,-11 183,-11 0,0 -120,147 -170,162 -50,16 -165,-49 -165,-49l-9 10c0,0 112,76 254,123 143,47 250,47 250,47l120 -147c0,0 -57,-375 -133,-404 -75,-30 -221,-317 -216,-368z"/>
   <path class="fil13" d="M4433 2319c0,0 49,-506 -210,-801 -258,-296 -544,-552 -544,-552 0,0 -61,232 -59,269 2,37 141,200 141,200 0,0 -128,-97 -167,-148 -39,-51 -73,-113 -73,-113l-38 31c0,0 229,228 249,251 21,22 131,5 131,5 0,0 -60,94 -68,107 -8,13 -81,22 -81,22 0,0 168,162 218,207 50,46 178,-36 178,-36 0,0 -175,324 -199,394 -24,69 48,152 48,152 0,0 -93,-88 -396,-313 -302,-224 -414,-444 -414,-444l-155 206c0,0 182,128 393,196 210,68 217,92 217,92 0,0 -94,113 -121,126 -26,13 -297,-52 -297,-52 0,0 -53,128 -13,245 39,118 339,55 551,110 211,55 356,276 367,298 11,22 303,74 342,-452z"/>
   <path class="fil11" d="M7509 1722c0,0 229,87 421,76 193,-11 273,-72 273,-72l6 16c0,0 -78,113 -135,167 -58,54 -141,77 -141,77 0,0 199,8 252,-4 52,-11 184,-140 184,-140 0,0 -64,173 -104,194 -40,22 -206,97 -206,97l-113 -49c0,0 88,89 145,100 57,12 151,-2 151,-2l-2 48c0,0 -125,-21 -308,-86 -183,-65 -408,80 -408,80 0,0 -337,-158 -424,-228 -88,-70 -81,-170 -81,-170l490 -104z"/>
   <path class="fil19" d="M4675 2974c0,0 -171,-98 -213,-131 -43,-34 -93,6 29,-177 121,-182 128,-209 128,-209l54 -3c0,0 -13,-65 -13,-155 0,-89 55,-287 55,-287 0,0 194,178 245,275 51,96 93,294 93,294 0,0 -59,250 -120,320 -61,71 -258,73 -258,73z"/>
   <path class="fil6" d="M6642 2648c0,0 -61,-400 83,-762 143,-362 652,-821 652,-821 0,0 520,-379 645,-434 126,-56 151,-97 224,9 21,31 42,61 62,92 -104,60 -255,139 -389,182 -235,76 -370,72 -370,72l-4 16c0,0 236,-20 570,-109 -36,73 -136,277 -156,308 -19,27 -55,68 -131,61 -121,-28 -338,-109 -379,-220 0,0 -171,119 -265,226 -94,108 -126,217 -126,217 0,0 97,-18 164,-47 67,-29 89,-57 89,-57l24 17c0,0 -102,49 -206,121 -103,71 -185,180 -185,180 0,0 119,197 146,256 28,59 -448,693 -448,693z"/>
   <path class="fil9" d="M6874 3164c0,0 156,-28 195,-29 40,-1 387,-142 466,-202 79,-60 434,-19 559,-21 124,-3 293,-45 293,-45 0,0 -109,-92 -133,92 -23,184 -227,177 -475,212 -248,34 -512,72 -512,72 0,0 140,5 416,-8 276,-13 533,-88 533,-88l12 21c0,0 -194,60 -299,82 -105,21 -184,21 -184,21 0,0 112,233 217,217 105,-15 316,-141 316,-141l72 152c0,0 -260,124 -684,98 -425,-26 -1071,101 -1071,101 0,0 -271,-358 -254,-366 16,-8 533,-168 533,-168z"/>
   <path class="fil11" d="M6238 6010l20 6c0,0 79,-65 84,-110 6,-45 -4,-99 -4,-99l-19 -19c0,0 47,2 81,-15 33,-16 107,-127 107,-127 0,0 38,33 64,50 26,17 107,61 107,61 0,0 -20,18 -46,33 -25,15 -71,32 -71,32 0,0 68,-5 101,0 32,5 36,5 36,5 0,0 189,-140 208,-153 18,-13 -66,-151 -66,-151 0,0 -307,-98 -388,-102 -80,-3 -247,92 -247,92l33 497z"/>
   <path class="fil20" d="M3829 4838c0,0 -209,11 -276,11 -67,0 -137,-32 -137,-32l-5 8c0,0 199,75 280,103 80,28 139,14 139,14 0,0 -48,44 -74,73 -26,30 -157,75 -157,75 0,0 558,530 645,557 87,26 318,-101 353,-107 34,-7 -44,69 -158,99 -114,31 -198,45 -198,45 0,0 217,25 329,31 111,5 385,-120 385,-120 0,0 161,175 239,189 78,14 162,-203 190,-217 28,-14 -161,-599 -161,-599l-1394 -130z"/>
   <path class="fil9" d="M6596 4858c0,0 21,222 25,250 3,28 -19,53 -19,53 0,0 82,39 123,47 41,7 148,-25 148,-25l55 81c0,0 -60,15 -99,17 -39,1 -87,-7 -87,-7 0,0 56,31 153,40 97,10 245,-23 245,-23l20 53c0,0 -252,-4 -327,-20 -75,-17 4,-40 -19,27 -22,67 -6,36 105,103 111,67 0,167 0,167 0,0 -276,-83 -332,-138 -57,-54 -237,-400 -247,-492 -9,-92 46,-226 46,-226l210 93z"/>
   <path class="fil13" d="M5182 5123c0,0 69,173 3,210 -2,-22 -5,-41 -5,-41 0,0 1,-110 -44,-75 -36,27 -136,75 -176,94 -87,-22 -165,-48 -165,-48l-84 -42c0,0 -4,-219 -5,-252 -1,-34 460,-195 502,-178 42,17 61,244 72,276 10,32 -98,56 -98,56z"/>
   <path class="fil13" d="M4405 5084c0,0 -32,51 -150,103 -118,52 -431,92 -431,92 0,0 6,-86 -37,-132 -43,-46 60,-112 60,-112l49 -172c0,0 507,130 509,221z"/>
   <path class="fil11" d="M7715 4267c0,0 74,-15 101,-29 27,-13 111,-21 111,-21 0,0 47,79 66,100 19,21 -87,78 -87,78 0,0 73,18 103,-3 30,-21 143,-58 143,-58l8 16c0,0 -104,123 -151,190 -47,68 -188,78 -188,78 0,0 215,190 293,208 78,18 153,-58 153,-58l11 19c0,0 -91,67 -208,99 -116,33 -117,56 -286,15 -169,-40 -246,-92 -246,-92l-21 95c0,0 -198,-60 -239,-80 -41,-19 437,-557 437,-557z"/>
   <path class="fil5" d="M3852 4254c-11,1 -131,6 -193,6 -61,0 -143,-25 -143,-25 0,0 -16,63 -28,89 -11,26 -4,69 -4,69 0,0 178,1 194,1 15,0 -143,24 -208,36 -65,11 -154,-11 -154,-11l-5 12c0,0 47,6 173,23 126,17 196,23 196,23l77 -6c0,0 -139,70 -190,98 -51,29 -221,34 -221,34 0,0 222,179 352,274 130,95 483,114 483,114 0,0 202,149 226,191 23,41 282,33 282,33 0,0 221,-172 229,-199 9,-27 -1066,-762 -1066,-762z"/>
   <path class="fil13" d="M6729 2647c0,0 111,-374 220,-508 108,-135 141,-184 141,-184l114 78c0,0 -176,131 -217,195 -40,64 -103,-20 164,-82 266,-63 294,-118 294,-118 0,0 -25,72 -98,213 -74,141 -125,170 -125,170l-54 8c0,0 14,35 34,54 19,20 9,67 9,67 0,0 72,-42 146,-138 74,-97 102,-222 102,-222l28 14c0,0 -146,300 -238,386 -70,66 -132,170 -160,212 -22,-7 -68,-23 -96,-40 -37,-23 -100,-72 -100,-72 0,0 -55,13 -84,0 -28,-13 -70,-29 -75,-31l-5 -2z"/>
   <path class="fil21" d="M6333 2887c0,0 125,-57 194,-152 69,-95 117,-204 117,-204 0,0 144,80 305,124 161,43 210,77 210,77 0,0 -153,164 -196,224 -43,61 -53,-76 53,2 106,78 236,10 236,0 0,-10 14,17 14,17 0,0 -139,136 -312,183 -172,47 -271,279 -271,279 0,0 -193,-74 -251,-115 -58,-40 -99,-435 -99,-435z"/>
   <path class="fil9" d="M4961 2936c0,0 -278,16 -357,16 -79,0 -444,-88 -444,-88l-77 29c0,0 -213,-110 -319,-155 -106,-45 -358,-54 -358,-54l0 13c0,0 86,-17 224,29 138,46 192,205 192,205 0,0 82,46 198,80 116,34 276,41 276,41 0,0 -157,70 -386,13 -228,-57 -465,-150 -465,-150 0,0 -50,103 -94,176 -44,74 -62,136 -62,136 0,0 37,40 52,44 14,4 -19,21 -92,63 -73,42 -157,98 -157,98l11 14c0,0 252,-43 363,-65 111,-22 553,15 553,15 0,0 -52,50 -133,52 -80,2 -196,-11 -196,-11 0,0 -22,70 -41,107 -20,37 -40,89 -40,89 0,0 271,-6 362,-24 91,-17 833,-124 871,-69 37,54 202,70 195,32 -7,-38 -76,-636 -76,-636z"/>
   <path class="fil1" d="M6045 5600c0,0 -65,142 -93,198 -28,57 -190,57 -190,57 0,0 -10,195 -13,206 -2,11 22,14 65,28 44,15 201,-33 240,-62 40,-30 132,-130 132,-198 0,-67 -141,-229 -141,-229z"/>
   <path class="fil2" d="M5430 2482c0,0 176,-81 194,-110 18,-29 -44,-216 -51,-296 -8,-80 14,-219 14,-219l14 4c0,0 -2,121 -3,154 -1,32 119,58 176,82 56,25 62,118 62,118 0,0 29,-291 39,-397 10,-106 -134,-18 60,-27 195,-8 -37,113 284,458 320,345 211,509 211,509 0,0 36,2 78,-150 43,-152 28,-188 28,-188l91 13c0,0 -29,75 -111,227 -81,152 -158,186 -158,186 0,0 -137,220 -171,303 -33,84 -239,368 -461,296 -222,-71 -296,-963 -296,-963z"/>
   <path class="fil3" d="M5908 4881c0,0 -74,-80 -90,-120 -16,-41 -16,-126 -16,-126l-15 1c0,0 -2,59 -2,120 0,61 5,111 5,111 0,0 -80,12 -126,-10 -47,-22 -64,-114 -64,-114 0,0 -67,122 -90,209 -22,87 155,470 179,665 24,195 180,185 180,185 0,0 -35,286 -143,302 -108,17 -237,-73 -230,-282 6,-209 -164,-547 -143,-768 22,-220 -52,-550 -52,-586 0,-36 18,-367 313,-341 296,26 537,177 549,309 13,132 -255,445 -255,445z"/>
   <path class="fil7" d="M5397 4461c0,0 46,392 69,585 23,192 33,245 33,245l-53 75c0,0 67,67 122,106 56,39 -12,415 -17,481 -6,66 198,108 198,108 0,0 68,0 128,-11 60,-11 94,-30 94,-30l5 16c0,0 -103,45 -160,45 -58,0 -120,-14 -185,-46 -64,-33 -157,-24 -165,15 -8,38 -2,46 -2,46 0,0 -59,-47 -85,-118 -26,-71 -66,-139 -62,-371 5,-233 -3,-477 -53,-579 -50,-101 133,-567 133,-567z"/>
   <path class="fil20" d="M5067 2469c0,0 8,-170 23,-235 15,-66 29,-126 29,-126 0,0 121,206 147,245 26,39 57,137 57,137 0,0 -3,-136 -14,-256 -12,-121 -12,-142 -12,-142l38 -2c0,0 -2,188 -2,224 0,36 82,116 212,192 131,77 169,121 169,121l29 64c0,0 -11,-235 -41,-330 -29,-95 -96,-201 -96,-201l109 -55c0,0 56,233 82,368 25,136 25,161 25,161l-29 63c0,0 64,106 89,159 24,52 -118,267 -118,267 0,0 36,268 81,393 45,124 114,386 90,525 -24,139 -90,307 -90,307 0,0 -167,-28 -198,-42 -32,-13 -56,-53 -56,-53 0,0 -120,-174 -205,-351 -85,-177 -319,-1433 -319,-1433z"/>
   <path class="fil22" d="M4949 3043c0,0 -94,-91 -131,-113 -38,-21 -43,-134 -43,-134l69 -125c0,0 47,39 74,56 27,17 43,33 43,33 0,0 -99,-139 -121,-184 -22,-45 -149,-172 -149,-172l10 -12c0,0 70,68 129,116 59,47 100,78 100,78 0,0 60,-34 47,-188 -13,-155 -81,-331 -81,-331l216 -48c0,0 -52,257 -57,302 -4,46 70,146 253,366 183,220 102,312 102,312 0,0 81,-24 112,-124 30,-100 -33,-318 -33,-318l16 -6c0,0 50,318 74,432 24,113 -34,241 -34,241 0,0 86,161 130,223 45,63 -88,348 -93,533 -5,186 8,256 8,256 0,0 34,-133 41,-220 6,-88 15,-117 15,-117l107 24c0,0 -99,306 -180,457 -81,152 -178,196 -178,196 0,0 23,163 28,190 5,27 11,47 11,47 0,0 -40,7 -113,-70 -73,-77 -317,-364 -364,-740 -48,-376 35,-693 35,-693l-43 -267z"/>
   <path class="fil8" d="M5245 3417c0,0 -47,115 -61,149 -13,34 -15,152 -15,167 0,16 -26,162 -18,222 7,60 -31,-55 4,-111 35,-56 48,-79 48,-79 0,0 45,43 65,52 20,9 50,30 50,30 0,0 -70,316 -101,389 -31,73 76,285 76,285l-11 63c0,0 36,-22 61,-2 26,20 48,211 48,211 0,0 -110,-24 -305,-261 -195,-236 -374,-172 -484,-438 -109,-267 -172,-563 -172,-563 0,0 69,-140 125,-171 57,-32 209,56 287,180 77,124 116,112 116,112 0,0 -20,-341 -20,-379 0,-37 209,-180 235,-171 26,9 94,139 96,166 1,28 -24,149 -24,149z"/>
   <path class="fil13" d="M6009 3282c0,0 -70,55 -92,55 -22,0 -95,69 -95,69 0,0 33,153 62,292 29,139 -4,314 -22,406 -18,91 -62,237 -47,303 14,66 170,227 170,227 0,0 -137,157 -160,194 -24,36 -8,360 -14,414 -7,55 15,198 28,207 13,9 117,113 117,113 0,0 156,216 187,269 30,53 -138,137 -138,137 0,0 -33,50 -45,69 -12,18 -89,30 -89,30l3 12c0,0 134,-68 231,-71 98,-3 117,22 117,22 0,0 36,-18 33,-83 -2,-65 -13,-241 -9,-302 5,-61 95,-417 107,-519 12,-102 38,-302 8,-499 -31,-196 230,-556 230,-556 0,0 -170,-671 -217,-789 -47,-118 -115,-186 -115,-186l-250 186z"/>
   <path class="fil23" d="M6401 3491c0,0 -32,103 -77,205 -46,103 11,281 11,281 0,0 -14,-11 -27,-27 -14,-16 -35,-126 -35,-126l-9 -1c0,0 44,295 66,363 22,67 57,80 57,80 0,0 -72,96 -98,129 -27,32 -131,-55 -131,-55 0,0 9,133 9,192 0,59 39,54 128,85 89,30 381,-467 405,-519 24,-52 -93,-571 -299,-607z"/>
   <path class="fil6" d="M6413 4889c0,0 23,79 74,151 51,72 -22,128 -3,134 19,5 105,24 137,56 32,32 50,307 50,307l34 68c0,0 3,8 -4,8 -6,0 -32,-87 -171,-78 -138,9 -93,-69 -93,-69 0,0 -80,28 -77,116 2,87 -45,119 -45,119l-82 -30c0,0 40,-197 70,-329 30,-132 -27,-314 -19,-313 8,2 129,-140 129,-140z"/>
   <path class="fil6" d="M5229 4965l-133 59c0,0 34,86 52,129 18,43 -52,118 -52,118l22 65c0,0 -56,21 -80,55 -23,34 68,125 113,175 44,50 166,54 166,54 0,0 46,-441 -88,-655z"/>
   <path class="fil20" d="M6653 3630c0,0 -33,-114 -85,-143 -53,-28 -64,-107 -64,-107 0,0 72,-114 90,-134 18,-20 24,-303 24,-303 0,0 -118,4 -133,0 -16,-4 -16,-4 -16,-4l-41 24c0,0 -174,-407 -245,-527 -72,-120 -231,-183 -231,-183 0,0 -39,142 -35,192 4,50 242,185 292,202 50,18 6,-107 -2,93 -8,200 -236,406 -236,406 0,0 41,161 66,213 25,53 7,568 -12,614 -18,45 90,120 90,120 0,0 47,-78 81,-230 33,-153 -19,-345 -19,-345l-50 -35c0,0 59,-26 85,-99 27,-73 32,-166 32,-166l17 0c0,0 0,70 0,138 0,68 38,143 38,143l112 31c0,0 -54,118 -54,202 0,85 166,288 166,288 0,0 153,-64 161,-99 8,-35 -31,-291 -31,-291z"/>
   <path class="fil6" d="M4386 3388c0,0 -1,-45 -1,-63 0,-18 141,-18 208,-28 67,-9 152,29 222,109 70,79 94,131 94,131l4 -1c0,0 -54,-122 -198,-326 -144,-204 -219,-269 -219,-269 0,0 -181,102 159,55 340,-47 517,-42 656,248 138,290 160,528 160,528l-28 54c0,0 65,53 80,78 14,25 -64,157 -64,157 0,0 -160,-353 -214,-442 -55,-88 -53,-452 -53,-452l-11 0c0,0 -13,105 -13,164 0,58 -74,129 -74,129 0,0 -11,94 0,132 10,38 26,98 26,98 0,0 -41,-111 -71,-203 -30,-91 -40,-175 -40,-175l-17 -2c0,0 66,405 98,523 31,118 -26,332 -26,332l-76 -44c0,0 -42,-159 -94,-353 -52,-193 -187,-324 -187,-324 0,0 -273,-40 -321,-56z"/>
   <path class="fil5" d="M4112 4050c-22,0 -138,-23 -365,-79 -226,-56 -398,-31 -398,-31l3 -21c0,0 161,4 225,-4 64,-8 214,-90 214,-90 0,0 197,53 240,62 44,9 -294,-123 -399,-164 -106,-42 -239,-42 -239,-42l1 -21c0,0 426,-41 643,-124 216,-84 347,-180 347,-180 0,0 81,5 193,104 113,99 189,293 189,293l-19 2c0,0 -57,-74 -168,-142 -111,-68 -111,-68 -111,-68 0,0 86,88 162,222 75,135 135,252 135,252 0,0 -13,146 -35,152 -21,7 -618,-121 -618,-121z"/>
   <path class="fil0" d="M4057 4183c0,0 -71,45 -132,60 -61,15 -148,15 -148,15 0,0 90,313 120,372 30,59 148,87 148,87 0,0 -54,36 -70,41 -15,6 -34,6 -34,6 0,0 418,264 662,273 244,9 383,159 383,159l137 -68c0,0 -109,-291 -169,-354 -59,-64 -897,-591 -897,-591z"/>
   <path class="fil7" d="M4027 4152c0,0 63,93 41,237 -23,144 57,298 233,435 177,137 439,109 439,109l21 -9c0,0 143,-3 214,8 70,12 236,-72 236,-72 0,0 -89,-212 -104,-301 -16,-89 -967,-464 -967,-464l-113 57z"/>
   <path class="fil5" d="M6648 4103c0,0 -35,-147 -46,-215 -11,-69 -21,-113 -11,-126 9,-13 22,-42 22,-42l-35 -43c0,0 187,-280 292,-361 104,-82 292,-113 292,-113l4 7c0,0 -100,13 -216,132 -115,120 -119,132 -119,132 0,0 161,-51 331,-57 169,-7 333,-112 346,-122 13,-11 246,148 285,174 39,26 15,133 15,133 0,0 207,-7 253,-7 45,0 156,-22 156,-22 0,0 154,260 185,351 31,92 91,141 91,141 0,0 -595,-29 -810,-57 -215,-27 -493,43 -493,43l-542 52z"/>
   <path class="fil0" d="M4307 4101c0,0 -123,4 -261,76 -138,73 -266,11 -266,11 0,0 119,30 199,-42 81,-72 161,-51 161,-51 0,0 -14,-32 -191,-21 -176,12 -218,-117 -218,-117l8 -6c0,0 20,125 291,62 271,-64 482,-7 584,54 101,61 107,73 107,73l9 -9c0,0 -69,-62 -152,-121 -83,-59 -103,-64 -103,-64l5 -11c0,0 143,12 380,127 237,116 183,209 325,474 142,265 206,257 206,257 0,0 -47,124 -73,167 -26,43 -52,63 -52,63 0,0 -114,-161 -140,-306 -26,-145 -819,-616 -819,-616z"/>
   <path class="fil7" d="M4307 4101c0,0 -94,3 -211,52 -3,-3 -7,-6 -12,-8 -21,-11 -43,-12 -43,-12 0,0 71,-44 291,-54 220,-10 466,69 588,210 121,141 250,427 250,427 0,0 -5,28 -30,58 -6,-19 -11,-38 -14,-57 -26,-145 -819,-616 -819,-616z"/>
   <path class="fil0" d="M7643 4280c0,0 41,-5 53,-8 11,-3 70,-18 70,-18 0,0 -14,71 -32,122 -19,50 -41,82 -41,82l-46 6c0,0 102,18 157,6 54,-12 81,-27 81,-27l6 9c0,0 -122,38 -208,73 -86,35 -86,35 -86,35 0,0 41,10 106,-1 66,-11 74,-34 74,-34l6 5c0,0 -138,128 -257,193 -119,66 -115,66 -128,66 -13,0 -28,-4 -28,-4 0,0 7,103 -18,125 -14,13 -116,43 -222,70 -16,-1 -34,-2 -50,-5 -43,-7 -54,-9 -54,-9 0,0 -14,25 -25,46 -32,7 -59,13 -81,17 -115,21 -311,-17 -311,-17 0,0 -13,-116 -13,-154 0,-38 1047,-578 1047,-578z"/>
   <path class="fil7" d="M7471 4118c0,0 93,1 139,1 46,0 68,-6 68,-6 0,0 4,88 4,102 0,15 -47,30 -47,30l31 31c0,0 -59,130 -208,322 -149,192 -257,254 -257,254l-55 -5c0,0 -69,37 -204,54 -134,16 -345,-13 -345,-13l-86 -44 960 -726z"/>
   <path class="fil0" d="M6454 4730c0,0 -20,128 -62,195 -43,67 -73,83 -73,83 0,0 -72,-158 -95,-222 -22,-64 27,-278 27,-278 0,0 131,-125 157,-156 25,-32 51,-19 51,-19 0,0 37,-90 53,-142 16,-52 241,-198 324,-312 84,-113 238,-120 238,-120l3 14c0,0 -105,-14 -143,118 -37,133 -98,151 -98,151 0,0 276,-103 637,-92 361,12 436,-62 436,-62l6 12c0,0 -151,127 -371,123 -221,-4 -225,-7 -225,-7 0,0 225,36 327,30 103,-6 114,-20 114,-20l6 11c0,0 -111,53 -216,68 -105,16 -822,454 -1096,625z"/>
   <path class="fil24" d="M5686 6341c0,0 70,67 155,16 85,-51 159,-26 159,-26 0,0 -65,82 -118,105 -54,24 -128,7 -196,-95z"/>
   <path class="fil7" d="M7572 4101c0,0 -186,-79 -469,-57 -283,22 -377,125 -513,264 -136,138 -159,192 -159,192 0,0 116,193 146,232 30,40 658,-402 995,-631z"/>
   <path class="fil25" d="M5544 6159c-11,-12 -62,-38 -77,-68 -16,-29 -8,-112 120,-64 128,49 158,103 340,36 183,-67 258,-38 258,-38 0,0 29,44 -70,98 -99,54 -96,169 -96,169 0,0 -16,69 -91,89 -74,20 -80,-17 -80,-17 0,0 -31,45 -100,16 -70,-29 -75,-55 -94,-115 -20,-59 -110,-106 -110,-106z"/>
   <path class="fil26" d="M5544 6159c-11,-12 -62,-38 -77,-68 -16,-29 -8,-112 119,-64 -9,14 -18,33 -24,58 -18,74 78,66 135,127 57,61 45,131 45,131l-52 1c-18,-20 -25,-43 -36,-79 -20,-59 -110,-106 -110,-106z"/>
   <path class="fil24" d="M5140 4777c0,0 -49,-269 -216,-468 -168,-200 -467,-195 -584,-207 -118,-12 -244,52 -244,52 0,0 51,25 17,181 -35,156 23,399 297,519 274,120 603,21 603,21l127 -98z"/>
   <path class="fil24" d="M6443 4808l136 72c496,63 909,-93 940,-648 7,-118 53,-131 53,-131 0,0 -380,-114 -674,1 -293,114 -422,486 -422,486l-33 220z"/>
   <path class="fil27" d="M6507 4576c0,0 79,-269 289,-404 211,-134 536,-112 616,-12 229,430 -552,1014 -905,416z"/>
   <path class="fil28" d="M7199 4282l226 52c15,292 -514,704 -821,297l323 -189 272 -160z"/>
   <path class="fil24" d="M6975 4210l19 0c0,0 32,26 31,164 -2,138 -37,200 -37,200l-10 0c-50,-82 -61,-284 -3,-364z"/>
   <path class="fil0" d="M7043 4187c0,0 52,-7 79,4 28,12 -12,97 -12,97l-63 14c0,0 7,-47 -4,-115zm9 133l48 -9c0,0 1,11 0,23 -14,5 -33,11 -47,15l-1 -29z"/>
   <path class="fil27" d="M5084 4618c0,0 -77,-262 -282,-394 -206,-131 -524,-109 -602,-12 -224,420 540,991 884,406z"/>
   <path class="fil28" d="M4408 4331l-221 51c-14,286 503,689 803,291l-316 -186 -266 -156z"/>
   <path class="fil24" d="M4627 4261l-18 0c0,0 -32,26 -30,161 1,134 36,195 36,195l9 0c49,-80 60,-277 3,-356z"/>
   <path class="fil0" d="M4561 4239c0,0 -50,-8 -78,4 -27,12 12,95 12,95l62 13c0,0 -7,-46 4,-112zm-9 129l-47 -8c0,0 -1,11 0,23 14,4 33,10 46,14l1 -29z"/>
   <path class="fil24" d="M6158 6106c0,0 -105,37 -142,71 -37,34 -45,53 -45,53 0,0 28,44 38,53 9,9 10,9 10,9 0,0 36,-79 139,-186zm-643 23c0,0 72,0 122,46 50,45 59,59 59,59l-34 57c0,0 -75,-92 -147,-162z"/>
   <path class="fil29" d="M6068 6191c0,0 35,-54 123,-134 16,-14 31,-27 45,-38 32,-28 55,-47 60,-61 4,-10 -3,-17 -23,-25l5 -12c28,11 36,24 30,41 -7,17 -31,38 -64,66 -14,11 -28,24 -44,38 -88,78 -121,132 -121,132l-11 -7z"/>
   <path class="fil29" d="M5547 6162c0,0 -25,-13 -74,-56 -13,-12 -20,-26 -21,-40 -1,-10 1,-20 7,-29 6,-9 15,-17 27,-22 23,-10 58,-13 104,0 29,8 54,19 78,29 73,31 138,59 292,-7 176,-76 248,-30 267,-13 4,-2 8,-4 9,-5 2,-2 7,22 7,22l-22 6 -15 -12c3,-1 6,-3 10,-5 -21,-16 -90,-51 -251,18 -159,68 -226,40 -302,7 -23,-10 -48,-20 -76,-28 -43,-12 -75,-10 -96,-1 -10,5 -17,11 -21,17 -5,7 -7,15 -6,22 1,11 6,22 17,32 48,42 74,55 74,55l-8 10z"/>
   <path class="fil29" d="M5672 6309c4,17 16,41 44,68 44,43 117,71 130,77 14,-6 88,-40 120,-77 29,-34 42,-71 46,-82l-3 -1c3,-18 24,-23 24,-23 0,0 0,29 -5,29 -1,0 -3,0 -5,-1 -4,14 -19,52 -48,86 -37,43 -126,81 -126,81l-2 1 -3 -1c0,0 -86,-31 -137,-80 -31,-30 -43,-59 -48,-77l-5 -2 -7 -24c0,0 20,-1 26,-2 4,-1 1,19 -1,28z"/>
   <path class="fil29" d="M5847 6415c0,0 -17,156 -17,256l0 11c0,45 1,66 -46,74 -38,7 -110,4 -245,-2 -36,-2 -77,-4 -123,-5 -429,-18 -530,-171 -530,-172l10 -7c0,1 98,149 520,166 47,2 87,4 124,5 134,6 205,9 241,3 37,-6 37,-24 37,-62l0 -11c0,-100 17,-257 17,-257l12 1z"/>
   <path class="fil29" d="M5837 6710c10,27 40,54 126,48 51,-4 93,-9 132,-14 92,-13 168,-23 304,-2l-2 13c-134,-21 -210,-11 -300,1 -40,5 -82,11 -133,14 -93,7 -127,-23 -138,-53 -8,2 -16,2 -16,0 1,-2 -1,-58 -1,-58 2,0 32,5 36,5 3,0 -7,38 -8,46z"/>
   <path class="fil29" d="M5470 6111c-1,0 -179,-118 -152,-517 14,-196 1,-334 -25,-438 -25,-105 -63,-176 -98,-239 -75,-132 -65,-159 -65,-159l8 10c0,0 -2,20 67,143 37,64 75,136 100,242 26,105 39,244 26,442 -27,391 145,506 146,506l-7 10z"/>
   <path class="fil24" d="M5466 6117c0,0 8,-9 13,-14 5,-4 -18,-27 -18,-27 0,0 -19,17 -22,21 -4,5 27,20 27,20z"/>
   <path class="fil5" d="M6556 3633c9,-14 54,-40 62,-56 8,-15 -40,-36 -40,-36 0,0 -24,59 -28,69 -4,9 6,23 6,23z"/>
   <path class="fil29" d="M6145 6094c0,0 51,-23 93,-84 15,-22 21,-55 16,-117 -10,-107 -25,-278 35,-545 75,-328 101,-424 133,-539 10,-33 26,-73 38,-117l12 3c-11,42 -28,83 -38,117 -32,115 -58,211 -133,539 -60,264 -45,435 -35,541 6,65 -1,99 -18,125 -44,63 -97,88 -98,88l-5 -11z"/>
   <path class="fil20" d="M6030 4053c0,0 45,57 57,62 11,6 -23,55 -23,55 0,0 -45,-82 -50,-91 -6,-9 16,-26 16,-26z"/>
   <path class="fil23" d="M6187 4616c0,0 51,4 65,7 14,2 -18,78 -18,99 0,21 -29,35 -29,35l-18 -141z"/>
   <path class="fil20" d="M5552 4308c5,1 95,37 113,42 18,5 -14,46 -25,76 -11,29 -64,0 -72,-2 -8,-3 -23,-72 -16,-116z"/>
   <path class="fil27" d="M4524 3658c0,0 27,57 31,72 3,14 -67,-5 -88,-14 -20,-8 57,-58 57,-58z"/>
   <path class="fil0" d="M6447 3455c0,0 174,-572 251,-843 77,-270 273,-581 273,-581l9 4c0,0 -267,450 -326,825 -58,374 -154,590 -154,590l-53 5zm-9 18l52 2c0,0 -16,24 -28,41 -12,18 -45,-14 -45,-14l21 -29z"/>
   <path class="fil30" d="M6568 3252c0,0 -70,172 -64,280 2,34 -6,51 -16,58l3 2c39,21 59,14 87,-38 16,-30 34,-73 59,-133 16,-36 34,-79 54,-127 125,-284 399,-663 399,-664l10 8c0,1 -273,378 -397,661 -22,50 -39,91 -54,127 -26,60 -44,104 -60,134 -33,61 -56,68 -104,43 -5,-3 -9,-5 -13,-7 -4,1 -9,0 -12,-1 -25,-9 -26,-21 0,-16 2,0 7,2 14,5 2,-1 4,-1 6,-3 7,-5 14,-18 12,-49 -7,-111 65,-285 65,-285l11 5z"/>
   <path class="fil0" d="M5001 3585c0,0 -149,-326 -462,-841 -314,-514 -492,-685 -492,-685l-5 5c0,0 186,214 308,409 122,195 602,1082 602,1082l49 30z"/>
   <path class="fil30" d="M5002 3591c0,0 -134,41 -290,-223 -77,-130 -190,-321 -328,-516 -138,-195 -301,-395 -476,-543l8 -9c176,148 339,349 478,545 138,195 252,387 328,517 151,256 277,217 277,217l3 12z"/>
   <path class="fil13" d="M5784 3345c0,0 54,-19 91,-58 37,-40 -80,-172 -80,-172 0,0 3,54 -20,77 -24,23 9,153 9,153z"/>
   <path class="fil20" d="M5219 2634c0,0 24,24 30,35 6,11 -7,40 -7,40l-48 -59 25 -16z"/>
   <path class="fil31" d="M5879 2759c15,12 26,28 26,28 0,0 29,-45 23,-72 -7,-27 -58,-58 -58,-58l9 102z"/>
   <path class="fil0" d="M4787 3614c0,0 -150,-101 -352,-334 -202,-232 -255,-313 -255,-313l-7 6c0,0 226,302 365,455 139,153 177,210 249,186z"/>
   <path class="fil0" d="M6578 3677c0,0 188,-221 363,-438 176,-218 421,-313 421,-313l2 8c0,0 -221,86 -370,289 -149,204 -323,474 -416,454z"/>
   <path class="fil32" d="M6643 2724c-27,-131 -102,-630 206,-1112 357,-559 1292,-1047 1295,-1049l2 -1 2 1c0,0 217,30 289,560 36,264 41,447 9,590 -32,145 -101,249 -212,354 -26,25 -48,41 -67,50 8,25 16,58 22,99 66,394 240,332 241,332l3 12c0,0 -188,66 -256,-342 -6,-41 -13,-72 -20,-97 -26,10 -42,5 -53,-6 -10,-11 -14,-29 -12,-44 2,-16 10,-30 22,-32 14,-2 32,14 50,66 16,-8 36,-23 61,-47 109,-103 177,-206 209,-347 31,-142 27,-324 -9,-586 -67,-493 -256,-546 -277,-550 -45,24 -941,501 -1289,1044 -305,476 -231,969 -204,1101 3,-1 6,-2 7,-1 5,1 5,34 9,36 4,1 -24,4 -24,4l-8 -33c0,0 2,-1 4,-2zm1470 -617c8,8 21,11 40,3 -14,-46 -27,-60 -37,-59 -6,1 -10,11 -12,22 -1,12 1,25 9,34z"/>
   <path class="fil5" d="M7449 1042c0,0 275,122 471,129 195,7 260,-10 260,-10l-22 148c0,0 -150,26 -184,26 -34,0 -91,0 -91,0 0,0 109,78 161,112 52,35 147,61 147,61 0,0 -152,344 -277,390 -126,46 -602,-34 -602,-34l5 -80c0,0 -99,61 -171,100 -72,39 -117,91 -117,91 0,0 -94,-275 -114,-328 -19,-53 328,-381 534,-605z"/>
   <path class="fil6" d="M6971 1603c0,0 39,-30 69,-59 29,-29 73,-51 73,-51 0,0 65,88 72,103 7,15 -198,38 -198,38l-16 -31z"/>
   <path class="fil33" d="M4446 2929c0,-3 19,-742 -86,-1144 -41,-156 -171,-331 -331,-498 -251,-261 -573,-500 -730,-607 -126,-86 -194,-124 -238,-99 -45,25 -69,114 -108,284 -43,185 -49,530 -11,877 32,292 95,585 192,784 212,436 783,444 785,444l0 12c-2,0 -580,-8 -796,-450 -98,-201 -161,-496 -193,-788 -38,-349 -32,-695 11,-882 39,-173 65,-265 114,-292 50,-28 121,11 251,100 157,107 480,346 732,609 161,167 293,345 334,503 105,404 86,1145 86,1147l-12 0z"/>
   <path class="fil20" d="M3877 1139l-46 91c0,0 231,140 266,163 36,24 118,399 137,482 20,83 -34,448 -34,448 0,0 51,62 100,106 50,44 143,111 143,111 0,0 7,-681 -132,-881 -139,-199 -434,-520 -434,-520z"/>
   <path class="fil20" d="M3955 2564c0,0 -123,-145 -302,-203 -179,-59 -452,-121 -452,-121 0,0 0,145 2,190 3,46 636,29 636,29l95 130 21 -25z"/>
   <path class="fil6" d="M6103 1297c0,0 51,39 81,41 30,1 102,-169 102,-169 0,0 -139,29 -183,128z"/>
   <path class="fil6" d="M6221 2317c0,0 57,-41 117,-47 60,-5 27,53 83,134 56,81 61,21 61,21 0,0 23,0 -77,13 -101,13 -184,-121 -184,-121z"/>
   <path class="fil6" d="M5105 1179c32,9 50,52 89,25 39,-27 48,-146 48,-146l-137 121z"/>
   <path class="fil34" d="M3478 3003c0,0 -97,-77 -218,-161 -120,-83 -161,-112 -161,-112 0,0 -111,90 -135,105 -24,15 2,89 2,89l-63 0 -4 39c0,0 241,94 346,135 104,42 187,11 187,11l46 -106z"/>
   <path class="fil34" d="M3480 3089c0,0 21,-42 27,-54 6,-12 57,3 57,3l11 64 -95 -13z"/>
   <path class="fil29" d="M5115 4715c-35,-76 -78,-246 40,-515 138,-316 83,-611 63,-695 -6,2 -11,4 -11,4l-7 -57 30 11c0,0 10,32 2,36l-2 1c20,82 76,383 -64,705 -110,252 -78,414 -45,493 -2,6 -4,11 -6,17z"/>
   <path class="fil29" d="M6459 4703c0,0 -275,-76 -176,-734 42,-273 10,-404 -12,-495 -31,-130 -44,-182 186,-431 339,-369 249,-889 221,-1015 -10,4 -19,7 -19,7l-1 -54 30 -9c0,0 19,30 10,42 -2,3 -5,5 -9,8 28,121 123,653 -223,1030 -225,244 -213,294 -183,419 22,92 54,225 12,499 -97,649 167,721 168,722l-4 11z"/>
   <path class="fil20" d="M4896 5808c0,0 64,32 75,41 12,9 -1,52 -7,58 -7,7 -36,13 -51,8 -14,-6 -17,-107 -17,-107z"/>
   <path class="fil20" d="M4970 6017c14,-1 64,-1 64,-1l7 79c0,0 -82,4 -82,-14 0,-18 11,-64 11,-64z"/>
   <path class="fil20" d="M4655 5925c21,7 69,27 69,27 0,0 -64,38 -94,51 -30,14 -74,-31 -74,-31l99 -47z"/>
   <path class="fil11" d="M6683 5861c12,0 33,-7 48,-7 15,0 39,28 42,38 4,9 -32,24 -45,24 -13,0 -45,-55 -45,-55z"/>
   <path class="fil11" d="M6783 6026c0,0 36,-66 62,-82 25,-15 126,31 159,31 32,0 53,-10 53,-10 0,0 5,31 3,45 -3,14 -277,16 -277,16z"/>
   <path class="fil11" d="M6581 6037c0,0 62,-12 73,-9 12,3 42,64 42,64 0,0 -46,27 -59,27 -13,0 -56,-82 -56,-82z"/>
   <path class="fil5" d="M3461 4295c0,0 14,-16 19,-36 5,-20 -79,-47 -79,-47 0,0 -42,32 -60,40 -17,8 -22,51 -22,51l142 -8z"/>
   <path class="fil16" d="M8018 4175c9,3 71,27 86,20 16,-6 32,-64 32,-64l-118 44z"/>
   <path class="fil0" d="M5668 4682c17,-1 40,9 52,-24 11,-33 7,-130 7,-130l-112 35 53 119z"/>
   <path class="fil0" d="M3360 3332c0,0 -43,-13 -139,-49 -96,-36 -398,-112 -398,-112l64 93c0,0 218,72 290,71 72,-1 183,-3 183,-3z"/>
   <path class="fil0" d="M3474 3813c0,0 -42,4 -237,0 -195,-4 -421,-7 -421,-7l24 108c0,0 375,-49 478,-62 103,-13 147,-13 147,-13l9 -26z"/>
   <path class="fil0" d="M8312 4194c0,0 209,-195 339,-308 129,-112 170,-160 170,-160l69 89c0,0 -260,106 -289,145 -29,39 -90,129 -90,129 0,0 135,-57 181,-75 45,-17 92,-76 92,-76l78 113c0,0 -454,123 -490,139 -37,16 -60,4 -60,4z"/>
   <path class="fil0" d="M4605 5948c0,0 -365,-139 -1105,271 -741,410 -965,432 -965,432l2 44c0,0 603,-243 995,-457 393,-214 665,-283 855,-280 190,4 202,39 202,39l16 -49z"/>
   <path class="fil0" d="M4647 6152c0,0 -314,-93 -962,268 -648,360 -1008,355 -1008,355l0 21c0,0 632,-97 1006,-340 373,-243 827,-271 827,-271l137 -33z"/>
   <path class="fil0" d="M4688 6192c0,0 -115,25 -588,348 -474,324 -613,575 -613,575l17 16c0,0 207,-310 604,-553 397,-243 575,-337 575,-337l20 -51 -15 2z"/>
   <path class="fil0" d="M7004 5975c0,0 443,-3 937,157 495,159 871,560 871,560l-24 19c0,0 -339,-387 -742,-511 -403,-124 -1007,-184 -1007,-184l-35 -41z"/>
   <path class="fil4" d="M6150 6419c7,5 25,39 31,46 7,6 -7,31 -28,31 -21,0 -78,-52 -78,-52l75 -25z"/>
   <path class="fil4" d="M6762 6403c0,0 25,-9 41,-13 17,-3 21,41 22,46 2,5 -40,27 -40,27l-23 -60z"/>
   <path class="fil4" d="M7108 6105c0,0 41,-21 53,-21 13,0 28,53 28,53l-45 13 -36 -45z"/>
   <path class="fil1" d="M5441 6319c21,1 63,40 63,40 0,0 28,51 -13,59 -41,8 -65,-34 -65,-34l15 -65z"/>
   <path class="fil1" d="M5037 6428c0,0 38,36 43,51 5,14 -41,16 -41,16l-2 -67z"/>
   <path class="fil0" d="M7144 6150c0,0 678,149 1024,229 347,80 399,147 399,147l-13 14c0,0 -210,-88 -554,-182 -344,-94 -850,-175 -850,-175l-6 -33z"/>
   <path class="fil0" d="M6945 6438c0,0 496,265 941,680 444,414 501,548 501,548l-22 13c0,0 -192,-269 -503,-548 -310,-279 -902,-661 -902,-661l-15 -32z"/>
   <path class="fil0" d="M6769 6546c0,0 345,230 544,477 198,248 264,373 264,373l-25 10c0,0 -219,-320 -282,-410 -63,-91 -518,-422 -518,-422l17 -28z"/>
   <path class="fil0" d="M4929 6316c0,0 -424,252 -724,388 -300,137 -471,286 -471,286l27 26c0,0 239,-180 472,-303 232,-123 693,-362 693,-362l3 -35z"/>
   <path class="fil29" d="M5154 4810c-2,1 -645,459 -1104,-172 -413,-569 -861,-474 -1176,-407 -29,6 -58,12 -84,17 -328,63 -245,-177 -245,-178l11 4c0,0 -75,221 231,162 27,-5 55,-11 85,-17 317,-68 770,-164 1188,412 452,621 1085,170 1087,169l7 10z"/>
   <path class="fil29" d="M6421 4840c0,0 271,149 716,2 177,-58 266,-177 352,-292 131,-175 255,-341 667,-282 673,97 653,-271 653,-272l12 -1c0,2 21,384 -667,286 -404,-58 -527,105 -655,277 -87,116 -178,236 -358,296 -450,149 -725,-3 -726,-4l6 -10z"/>
   <path class="fil29" d="M5318 5548c-67,52 -534,387 -1307,316l-124 -12c-332,-31 -499,-47 -615,-20 -116,28 -182,99 -316,242 -15,15 -30,31 -46,48 -339,359 -483,5 -483,4l11 -4c0,1 137,337 463,-9 16,-17 31,-33 46,-48 135,-144 203,-216 322,-245 118,-27 286,-12 619,20l125 11c773,72 1237,-266 1298,-314l-1 -2c0,0 10,-7 17,-12 8,-5 9,3 13,10 4,7 -18,21 -18,21l-4 -6z"/>
   <path class="fil24" d="M5132 4803c0,0 7,-6 14,-9 7,-2 12,16 14,20 2,4 -16,9 -16,9l-12 -20z"/>
   <path class="fil29" d="M6296 5344c2,2 615,523 1329,364 120,-27 227,-54 326,-78 491,-124 734,-185 1002,181 313,427 437,98 437,97l12 5c-1,1 -132,350 -459,-95 -263,-359 -504,-299 -990,-176 -97,24 -205,51 -325,78 -721,161 -1338,-365 -1340,-366l8 -10z"/>
   <path class="fil24" d="M6289 5338c2,0 16,7 18,8 3,0 1,14 -1,20 -1,7 -23,6 -23,6l6 -34z"/>
   <path class="fil0" d="M7495 6356c0,0 507,112 837,274 329,163 458,279 458,279l-28 19c0,0 -147,-142 -424,-271 -278,-130 -952,-277 -952,-277l109 -24z"/>
   <path class="fil32" d="M4828 6712c-1,2 -320,367 -455,685 -57,132 -107,154 -175,124 -33,-14 -70,-40 -114,-72 -87,-62 -201,-144 -366,-190 -249,-70 -295,-247 -345,-445 -35,-134 -72,-279 -180,-404l10 -8c109,127 147,273 182,409 49,194 94,368 336,436 167,46 283,129 370,192 44,31 80,58 112,71 61,26 106,5 158,-118 136,-318 455,-684 456,-686l11 6z"/>
   <path class="fil32" d="M6771 6806c1,1 120,353 441,501 93,42 183,80 269,115 210,88 390,163 513,274 31,27 47,33 56,23 12,-13 15,-50 20,-99 13,-134 35,-355 255,-485l53 -31c345,-202 571,-335 507,-777l12 -2c66,451 -164,585 -513,790l-52 30c-216,127 -237,345 -250,476 -5,52 -9,90 -23,106 -14,16 -36,11 -73,-22 -121,-110 -301,-184 -510,-271 -85,-36 -175,-73 -269,-116 -326,-150 -447,-507 -447,-508l11 -4z"/>
   <path class="fil0" d="M7516 3364c0,0 94,-150 187,-161 93,-12 162,15 162,15 0,0 -160,39 -211,65 -51,27 -112,80 -112,80l-26 1z"/>
  </g>
  <path class="fil34" d="M3156 2881c0,0 -437,84 -1442,5 -1005,-80 -1552,-97 -1552,-97l-84 244c0,0 1707,-26 2231,-44 525,-17 843,-8 843,-8l4 -100z"/>
  <path class="fil2" d="M9217 4910c0,0 9,-32 674,-67 664,-34 1757,-202 1757,-202l23 173c0,0 -1156,69 -1760,122 -603,53 -750,31 -750,31l56 -57z"/>
  <path class="fil12" d="M8362 1460c0,0 722,-14 1199,-49 477,-34 2072,-26 2072,-26l-9 139c0,0 -2619,-25 -2888,-26 -269,-1 -283,-8 -283,-8l-91 -30z"/>
  <path class="fil35" d="M3973 1147c0,-1 224,-262 595,-205 243,37 262,30 374,-16 57,-23 137,-55 281,-96 91,-26 134,-50 152,-70 -39,-30 -47,-48 -43,-57 5,-9 21,-11 35,-5 13,5 27,16 31,31 2,8 2,18 -5,29 30,20 75,47 143,83 235,121 341,86 468,44 129,-43 279,-93 599,-2 633,180 732,-9 732,-10l13 8c0,0 -105,200 -749,16 -315,-89 -463,-40 -590,2 -131,43 -239,79 -480,-45 -67,-35 -113,-63 -143,-86 -21,24 -67,50 -159,76 -143,41 -223,74 -279,96 -115,47 -136,55 -382,17 -363,-55 -581,199 -582,199l-11 -9zm1409 -397c3,-6 3,-12 2,-17 -3,-10 -13,-17 -22,-21 -8,-3 -15,-4 -16,-2 -3,5 5,18 36,40z"/>
  <path class="fil1" d="M8701 2890c-87,-105 -157,-308 -35,-220l60 44c0,0 39,-37 56,-47 12,-6 146,123 -81,223z"/>
  <path class="fil7" d="M2637 3920c-96,-2 -236,-59 -133,-83l51 -11c0,0 -2,-38 1,-51 2,-9 132,-21 81,145z"/>
  <path class="fil2" d="M3534 7553c-96,-2 -236,-59 -133,-83l51 -11c0,0 -2,-38 1,-51 2,-9 132,-21 81,145z"/>
  <path class="fil11" d="M9583 5386c96,-2 236,-59 133,-82l-51 -12c0,0 2,-38 -1,-51 -2,-9 -132,-21 -81,145z"/>
  <path class="fil4" d="M3857 6091c0,0 -670,76 -2051,76 -1380,0 -1630,56 -1630,56l42 159c0,0 1166,-99 2055,-142 890,-43 1561,-30 1561,-30l23 -119z"/>
  <path class="fil5" d="M5025 6824c0,0 -30,20 -178,209 -147,188 -245,384 -245,384l122 20c0,0 163,-362 186,-437 23,-74 142,-128 142,-128l-27 -48z"/>
  <path class="fil5" d="M6512 7105c0,0 199,142 335,233 137,91 230,91 230,91l32 -51c0,0 -298,-97 -383,-159 -85,-62 -147,-150 -147,-150l-67 36z"/>
 </g>
</svg>
